HIERARCHY
ROOT Hips
{
	OFFSET 0.00000 0.00000 0.00000
	CHANNELS 6 Xposition Yposition Zposition Zrotation Yrotation Xrotation 
	JOINT LHipJoint
	{
		OFFSET 0 0 0
		CHANNELS 3 Zrotation Yrotation Xrotation
		JOINT LeftHip
		{
			OFFSET 1.37590 -1.78394 0.89329
			CHANNELS 3 Zrotation Yrotation Xrotation
			JOINT LeftKnee
			{
				OFFSET 2.47928 -6.81178 0.00000
				CHANNELS 3 Zrotation Yrotation Xrotation
				JOINT LeftAnkle
				{
					OFFSET 2.63345 -7.23535 0.00000
					CHANNELS 3 Zrotation Yrotation Xrotation
					JOINT LeftToe
					{
						OFFSET 0.23938 -0.65768 2.27012
						CHANNELS 3 Zrotation Yrotation Xrotation
						End Site
						{
							OFFSET 0.00000 -0.00000 1.18363
						}
					}
				}
			}
		}
	}
	JOINT RHipJoint
	{
		OFFSET 0 0 0
		CHANNELS 3 Zrotation Yrotation Xrotation
		JOINT RightHip
		{
			OFFSET -1.33617 -1.78394 0.89329
			CHANNELS 3 Zrotation Yrotation Xrotation
			JOINT RightKnee
			{
				OFFSET -2.56922 -7.05888 0.00000
				CHANNELS 3 Zrotation Yrotation Xrotation
				JOINT RightAnkle
				{
					OFFSET -2.56568 -7.04915 0.00000
					CHANNELS 3 Zrotation Yrotation Xrotation
					JOINT RightToe
					{
						OFFSET -0.27533 -0.75646 2.18105
						CHANNELS 3 Zrotation Yrotation Xrotation
						End Site
						{
							OFFSET -0.00000 -0.00000 1.15233
						}
					}
				}
			}
		}
	}
	JOINT lowerback
	{
		OFFSET 0 0 0
		CHANNELS 3 Zrotation Yrotation Xrotation
		JOINT Chest
		{
			OFFSET 0.06190 2.15152 -0.00935
			CHANNELS 3 Zrotation Yrotation Xrotation
			JOINT Chest2
			{
				OFFSET 0.06334 2.15332 0.00872
				CHANNELS 3 Zrotation Yrotation Xrotation
				JOINT lowerneck
				{
					OFFSET 0 0 0
					CHANNELS 3 Zrotation Yrotation Xrotation
					JOINT Neck
					{
						OFFSET -0.04202 1.66908 0.23524
						CHANNELS 3 Zrotation Yrotation Xrotation
						JOINT Head
						{
							OFFSET 0.07510 1.69357 -0.24440
							CHANNELS 3 Zrotation Yrotation Xrotation
							End Site
							{
								OFFSET 0.02556 1.71719 -0.11000
							}
						}
					}
				}
				JOINT LeftCollar
				{
					OFFSET 0 0 0
					CHANNELS 3 Zrotation Yrotation Xrotation
					JOINT LeftShoulder
					{
						OFFSET 3.67168 1.26306 -0.41342
CHANNELS 3 Zrotation Xrotation Yrotation
						JOINT LeftElbow
						{
OFFSET 0 -4.685100 -0.000000
CHANNELS 3 Zrotation Xrotation Yrotation
							JOINT LeftWrist
							{
OFFSET 0 -3.396260 -0.000000
CHANNELS 3 Zrotation Xrotation Yrotation
								JOINT lhand
								{
									OFFSET 0 0 0
CHANNELS 3 Zrotation Xrotation Yrotation
									JOINT LFingers
									{
OFFSET 0 -0.486080 -0.000000
CHANNELS 3 Zrotation Xrotation Yrotation
										End Site
										{
OFFSET 0 -0.391890 -0.000000
										}
									}
								}
								JOINT LThumb
								{
OFFSET 0 0.000000 0.000000
CHANNELS 3 Zrotation Xrotation Yrotation
									End Site
									{
OFFSET 0 -0.397870 0.397870
									}
								}
							}
						}
					}
				}
				JOINT RightCollar
				{
					OFFSET 0 0 0
					CHANNELS 3 Zrotation Yrotation Xrotation
					JOINT RightShoulder
					{
						OFFSET -3.04136 1.42992 -0.76390
CHANNELS 3 Zrotation Xrotation Yrotation
						JOINT RightElbow
						{
OFFSET 0 -5.555760 -0.000000
CHANNELS 3 Zrotation Xrotation Yrotation
							JOINT RightWrist
							{
OFFSET 0 -3.327740 -0.000000
CHANNELS 3 Zrotation Xrotation Yrotation
								JOINT rhand
								{
									OFFSET 0 0 0
CHANNELS 3 Zrotation Xrotation Yrotation
									JOINT RFingers
									{
OFFSET 0 -0.507630 -0.000000
CHANNELS 3 Zrotation Xrotation Yrotation
										End Site
										{
OFFSET 0 -0.409260 -0.000000
										}
									}
								}
								JOINT RThumb
								{
OFFSET 0 0.000000 0.000000
CHANNELS 3 Zrotation Xrotation Yrotation
									End Site
									{
OFFSET 0 -0.415510 0.415510
									}
								}
							}
						}
					}
				}
			}
		}
	}
}
MOTION
Frames: 4
Frame Time: 0.008333333333333333
3.009484 18.066094 4.679787 310.477514 -77.917139 -304.285698 0.000000 0.000000 0.000000 -3.422392 -10.881569 -31.718003 8.324042 16.351283 53.719644 0.193529 -1.306214 -7.952559 0.798936 -5.705189 -15.931341 0.000000 0.000000 0.000000 33.751255 5.942169 -2.941183 -0.516647 -4.606975 12.790909 -0.042523 -10.120506 -15.077593 -0.435372 -4.234013 11.735870 6.885296 1.036716 0.391117 3.703730 1.401843 -0.993204 -0.058253 0.614701 -1.169982 -9.535695 -7.371915 -14.015116 3.907252 -8.624767 11.697654 1.912235 -4.303149 6.435051 0.000000 0.000000 0.000000 0.788932 25.285088 15.502403 11.081021 -18.412225 1.801515 4.696096 26.853468 -18.928633 0.000000 0.000000 0.000000 -7.125000 0.000000 0.000000 -22.435827 47.629894 1.529092 0.000000 0.000000 0.000000 -5.586178 21.238920 -14.183023 -7.858838 -13.323844 -0.919345 -7.680918 24.757877 28.078037 0.000000 0.000000 0.000000 7.125000 0.000000 0.000000 24.771661 56.500890 -7.296436
2.912093 18.056942 4.679202 310.094449 -77.937313 -303.847768 0.000000 0.000000 0.000000 -3.254740 -10.882342 -32.177416 7.976975 16.099364 52.474946 0.205750 -1.132881 -8.242796 0.808541 -5.738366 -16.027166 0.000000 0.000000 0.000000 33.887308 5.887251 -2.622405 -0.514718 -4.598461 12.766723 -0.065102 -10.059703 -15.334403 -0.420104 -4.159955 11.527037 6.974172 1.080068 0.409963 3.672082 1.461461 -0.981416 -0.140757 0.643925 -1.162492 -9.559354 -7.381531 -13.990666 3.925674 -8.637210 11.665388 1.921542 -4.308785 6.423367 0.000000 0.000000 0.000000 0.735467 25.196076 15.317899 11.247593 -18.666535 1.854528 5.393542 26.466651 -18.889989 0.000000 0.000000 0.000000 -7.125000 0.000000 0.000000 -21.790359 47.688779 1.513347 0.000000 0.000000 0.000000 -5.657494 21.109921 -14.333827 -7.851720 -13.312275 -0.917705 -7.609591 24.848426 27.983389 0.000000 0.000000 0.000000 7.125000 0.000000 0.000000 24.775006 56.401115 -7.236377
2.814958 18.047265 4.678900 309.694821 -77.968590 -303.383197 0.000000 0.000000 0.000000 -3.092378 -10.883136 -32.608653 7.616135 15.826606 51.163037 0.216455 -0.953808 -8.502548 0.820258 -5.778701 -16.143742 0.000000 0.000000 0.000000 34.007784 5.832586 -2.328522 -0.514380 -4.596916 12.762281 -0.089172 -9.980601 -15.583737 -0.403888 -4.079784 11.301242 7.053729 1.124967 0.424335 3.639581 1.523038 -0.974905 -0.218970 0.674073 -1.157808 -9.585811 -7.387829 -13.961227 3.942879 -8.644844 11.629452 1.931632 -4.312364 6.409408 0.000000 0.000000 0.000000 0.677144 25.086282 15.141867 11.404915 -18.906073 1.905144 6.109893 26.143063 -18.877927 0.000000 0.000000 0.000000 -7.125000 0.000000 0.000000 -21.137747 47.775160 1.510496 0.000000 0.000000 0.000000 -5.733905 20.964340 -14.427535 -7.847151 -13.304828 -0.916659 -7.562638 24.924087 27.901469 0.000000 0.000000 0.000000 7.125000 0.000000 0.000000 24.763502 56.317743 -7.181643
2.718081 18.037072 4.678900 309.274950 -78.010506 -302.888476 0.000000 0.000000 0.000000 -2.934410 -10.884490 -33.010775 7.242028 15.532268 49.783592 0.225437 -0.767112 -8.729307 0.834301 -5.826961 -16.283319 0.000000 0.000000 0.000000 34.113358 5.778480 -2.059490 -0.515591 -4.602262 12.777394 -0.114621 -9.883582 -15.824111 -0.386423 -3.991818 11.053739 7.124801 1.171374 0.434528 3.606433 1.586554 -0.973907 -0.293179 0.705082 -1.156311 -9.614896 -7.390680 -13.927437 3.958490 -8.647481 11.590672 1.942325 -4.313790 6.393512 0.000000 0.000000 0.000000 0.614341 24.956115 14.971993 11.552761 -19.130622 1.953262 6.840070 25.879949 -18.892398 0.000000 0.000000 0.000000 -7.125000 0.000000 0.000000 -20.482206 47.888504 1.519834 0.000000 0.000000 0.000000 -5.815527 20.802735 -14.460469 -7.845512 -13.302119 -0.916303 -7.540754 24.983681 27.833676 0.000000 0.000000 0.000000 7.125000 0.000000 0.000000 24.737483 56.252161 -7.133240
